<mxfile host="app.diagrams.net" modified="2023-05-30T17:43:21.906Z" agent="Mozilla/5.0 (Windows NT 10.0; Win64; x64) AppleWebKit/537.36 (KHTML, like Gecko) Chrome/110.0.0.0 YaBrowser/23.3.4.603 Yowser/2.5 Safari/537.36" etag="rs4sYm9IXfbtNKMdfrIV" version="21.3.6" type="github">
  <diagram name="Page-1" id="e7e014a7-5840-1c2e-5031-d8a46d1fe8dd">
    <mxGraphModel dx="1386" dy="791" grid="1" gridSize="10" guides="1" tooltips="1" connect="1" arrows="1" fold="1" page="1" pageScale="1" pageWidth="1169" pageHeight="826" background="none" math="0" shadow="0">
      <root>
        <mxCell id="0" />
        <mxCell id="1" parent="0" />
        <mxCell id="7O-zZMA9h90w6eB_s7jD-41" value="Клиент" style="rounded=0;whiteSpace=wrap;html=1;" vertex="1" parent="1">
          <mxGeometry x="525" y="150" width="120" height="60" as="geometry" />
        </mxCell>
        <mxCell id="7O-zZMA9h90w6eB_s7jD-42" value="Автомат" style="rounded=0;whiteSpace=wrap;html=1;" vertex="1" parent="1">
          <mxGeometry x="800" y="150" width="120" height="60" as="geometry" />
        </mxCell>
        <mxCell id="7O-zZMA9h90w6eB_s7jD-43" value="" style="endArrow=none;dashed=1;html=1;rounded=0;entryX=0.433;entryY=1.05;entryDx=0;entryDy=0;entryPerimeter=0;" edge="1" parent="1" target="7O-zZMA9h90w6eB_s7jD-41">
          <mxGeometry width="50" height="50" relative="1" as="geometry">
            <mxPoint x="577" y="780" as="sourcePoint" />
            <mxPoint x="610" y="380" as="targetPoint" />
          </mxGeometry>
        </mxCell>
        <mxCell id="7O-zZMA9h90w6eB_s7jD-44" value="" style="endArrow=none;dashed=1;html=1;rounded=0;entryX=0.6;entryY=1.017;entryDx=0;entryDy=0;entryPerimeter=0;" edge="1" parent="1" source="7O-zZMA9h90w6eB_s7jD-45" target="7O-zZMA9h90w6eB_s7jD-42">
          <mxGeometry width="50" height="50" relative="1" as="geometry">
            <mxPoint x="870" y="804" as="sourcePoint" />
            <mxPoint x="890" y="300" as="targetPoint" />
            <Array as="points" />
          </mxGeometry>
        </mxCell>
        <mxCell id="7O-zZMA9h90w6eB_s7jD-46" value="" style="endArrow=none;dashed=1;html=1;rounded=0;entryX=0.6;entryY=1.017;entryDx=0;entryDy=0;entryPerimeter=0;" edge="1" parent="1" source="7O-zZMA9h90w6eB_s7jD-55" target="7O-zZMA9h90w6eB_s7jD-45">
          <mxGeometry width="50" height="50" relative="1" as="geometry">
            <mxPoint x="870" y="804" as="sourcePoint" />
            <mxPoint x="872" y="211" as="targetPoint" />
            <Array as="points" />
          </mxGeometry>
        </mxCell>
        <mxCell id="7O-zZMA9h90w6eB_s7jD-45" value="" style="rounded=0;whiteSpace=wrap;html=1;" vertex="1" parent="1">
          <mxGeometry x="860" y="260" width="20" height="40" as="geometry" />
        </mxCell>
        <mxCell id="7O-zZMA9h90w6eB_s7jD-49" style="edgeStyle=orthogonalEdgeStyle;rounded=0;orthogonalLoop=1;jettySize=auto;html=1;" edge="1" parent="1" source="7O-zZMA9h90w6eB_s7jD-48">
          <mxGeometry relative="1" as="geometry">
            <mxPoint x="870" y="255" as="targetPoint" />
          </mxGeometry>
        </mxCell>
        <mxCell id="7O-zZMA9h90w6eB_s7jD-48" value="" style="ellipse;whiteSpace=wrap;html=1;aspect=fixed;" vertex="1" parent="1">
          <mxGeometry x="1010" y="240" width="30" height="30" as="geometry" />
        </mxCell>
        <mxCell id="7O-zZMA9h90w6eB_s7jD-50" value="Внесена оплата" style="text;html=1;strokeColor=none;fillColor=none;align=center;verticalAlign=middle;whiteSpace=wrap;rounded=0;" vertex="1" parent="1">
          <mxGeometry x="880" y="230" width="120" height="30" as="geometry" />
        </mxCell>
        <mxCell id="7O-zZMA9h90w6eB_s7jD-52" value="" style="endArrow=classic;html=1;rounded=0;exitX=0.5;exitY=1;exitDx=0;exitDy=0;" edge="1" parent="1" source="7O-zZMA9h90w6eB_s7jD-45">
          <mxGeometry width="50" height="50" relative="1" as="geometry">
            <mxPoint x="880" y="340" as="sourcePoint" />
            <mxPoint x="890" y="340" as="targetPoint" />
            <Array as="points">
              <mxPoint x="930" y="300" />
              <mxPoint x="960" y="300" />
              <mxPoint x="960" y="340" />
            </Array>
          </mxGeometry>
        </mxCell>
        <mxCell id="7O-zZMA9h90w6eB_s7jD-54" value="Приготовление кофе" style="text;html=1;strokeColor=none;fillColor=none;align=center;verticalAlign=middle;whiteSpace=wrap;rounded=0;" vertex="1" parent="1">
          <mxGeometry x="970" y="310" width="100" height="30" as="geometry" />
        </mxCell>
        <mxCell id="7O-zZMA9h90w6eB_s7jD-56" value="" style="endArrow=none;dashed=1;html=1;rounded=0;entryX=0.6;entryY=1.017;entryDx=0;entryDy=0;entryPerimeter=0;" edge="1" parent="1" target="7O-zZMA9h90w6eB_s7jD-55">
          <mxGeometry width="50" height="50" relative="1" as="geometry">
            <mxPoint x="870" y="804" as="sourcePoint" />
            <mxPoint x="872" y="301" as="targetPoint" />
            <Array as="points">
              <mxPoint x="872" y="390" />
            </Array>
          </mxGeometry>
        </mxCell>
        <mxCell id="7O-zZMA9h90w6eB_s7jD-55" value="" style="rounded=0;whiteSpace=wrap;html=1;" vertex="1" parent="1">
          <mxGeometry x="860" y="340" width="20" height="60" as="geometry" />
        </mxCell>
        <mxCell id="7O-zZMA9h90w6eB_s7jD-57" value="" style="endArrow=classic;html=1;rounded=0;exitX=0.5;exitY=1;exitDx=0;exitDy=0;" edge="1" parent="1" source="7O-zZMA9h90w6eB_s7jD-55">
          <mxGeometry width="50" height="50" relative="1" as="geometry">
            <mxPoint x="560" y="440" as="sourcePoint" />
            <mxPoint x="580" y="400" as="targetPoint" />
          </mxGeometry>
        </mxCell>
        <mxCell id="7O-zZMA9h90w6eB_s7jD-58" value="Выдача кофе" style="text;html=1;strokeColor=none;fillColor=none;align=center;verticalAlign=middle;whiteSpace=wrap;rounded=0;" vertex="1" parent="1">
          <mxGeometry x="670" y="370" width="90" height="30" as="geometry" />
        </mxCell>
        <mxCell id="7O-zZMA9h90w6eB_s7jD-59" value="" style="endArrow=none;html=1;rounded=0;" edge="1" parent="1">
          <mxGeometry width="50" height="50" relative="1" as="geometry">
            <mxPoint x="550" y="500" as="sourcePoint" />
            <mxPoint x="600" y="450" as="targetPoint" />
          </mxGeometry>
        </mxCell>
        <mxCell id="7O-zZMA9h90w6eB_s7jD-60" value="" style="endArrow=none;html=1;rounded=0;" edge="1" parent="1">
          <mxGeometry width="50" height="50" relative="1" as="geometry">
            <mxPoint x="600" y="500" as="sourcePoint" />
            <mxPoint x="550" y="450" as="targetPoint" />
          </mxGeometry>
        </mxCell>
      </root>
    </mxGraphModel>
  </diagram>
</mxfile>
